<svg version="1.0" xmlns="http://www.w3.org/2000/svg"
 width="300.000000pt" height="415.000000pt" viewBox="0 0 300.000000 415.000000"
 preserveAspectRatio="xMidYMid meet">
<g transform="translate(0.000000,415.000000) scale(0.100000,-0.100000)"
fill="#000000" stroke="none">
<path d="M2570 1540 c0 -5 4 -10 10 -10 5 0 16 -12 24 -27 13 -24 22 -19 17
10 0 4 2 6 7 6 18 -3 32 2 32 12 0 7 -10 9 -25 5 -14 -4 -34 -2 -45 4 -14 7
-20 7 -20 0z"/>
<path d="M2226 1412 c12 -9 27 -26 33 -37 11 -18 11 -18 5 5 -6 26 -30 50 -48
50 -6 0 -1 -8 10 -18z"/>
<path d="M2276 1414 c-10 -25 1 -29 14 -5 6 12 7 21 1 21 -5 0 -12 -7 -15 -16z"/>
<path d="M2436 1408 c-20 -28 -21 -44 -1 -28 8 7 13 16 10 19 -2 4 2 8 9 8 8
0 12 -6 9 -13 -2 -6 0 -15 6 -19 12 -7 15 14 5 39 -8 22 -20 20 -38 -6z"/>
<path d="M2326 1378 c-9 -12 -16 -33 -16 -46 0 -13 -4 -21 -9 -18 -5 3 -19 -2
-31 -12 -16 -13 -23 -31 -25 -72 -2 -30 -13 -73 -24 -95 -12 -21 -21 -45 -21
-52 0 -7 -4 -13 -10 -13 -5 0 -10 -25 -10 -55 0 -44 3 -53 15 -49 8 4 15 17
15 29 0 13 4 26 10 30 5 3 6 13 3 23 -3 9 -2 14 2 9 10 -8 54 87 55 118 0 15
2 17 9 6 9 -14 4 -49 -11 -68 -8 -10 -13 -99 -9 -153 4 -60 -7 -184 -16 -187
-7 -3 -39 -22 -72 -43 -50 -32 -61 -36 -62 -22 0 14 -2 13 -9 -4 -4 -11 -23
-26 -42 -33 -64 -25 -75 -31 -39 -25 44 8 115 40 131 59 7 8 18 15 25 15 7 0
18 7 25 15 8 9 30 15 56 15 32 0 44 -4 44 -15 0 -8 4 -15 8 -15 4 0 6 -16 4
-35 -4 -34 -3 -35 29 -35 19 0 43 7 53 15 18 14 18 15 -8 24 -25 10 -38 51
-16 51 6 0 18 8 28 18 33 33 291 125 412 147 56 10 160 46 160 55 0 4 -23 -1
-52 -12 -29 -11 -77 -24 -107 -29 -31 -6 -85 -19 -120 -30 -35 -11 -66 -17
-69 -15 -2 3 -8 20 -13 38 l-8 33 2 -39 c2 -37 0 -40 -41 -57 l-42 -18 0 27
c0 15 7 56 16 92 8 36 16 81 17 100 1 24 7 36 20 38 11 2 17 -3 17 -15 0 -31
-12 -63 -21 -57 -5 3 -8 -10 -8 -28 1 -23 3 -26 6 -10 2 12 9 22 14 22 12 0
12 -37 -1 -45 -13 -8 -13 -35 0 -35 9 0 14 24 25 117 5 44 3 54 -13 62 -29 16
-55 -9 -58 -55 -1 -21 -7 -59 -13 -84 -6 -25 -13 -66 -16 -91 -6 -44 -8 -47
-51 -64 -35 -13 -48 -14 -59 -5 -12 10 -15 9 -15 -4 0 -10 5 -14 10 -11 16 10
12 -11 -5 -25 -24 -20 -28 -5 -15 52 8 29 15 62 16 73 2 11 10 43 18 72 15 54
12 150 -5 168 -12 12 -12 55 0 55 5 0 13 -15 16 -32 4 -18 18 -49 31 -70 22
-35 23 -39 9 -79 -9 -23 -12 -51 -9 -62 4 -12 2 -17 -4 -13 -13 8 -22 -17 -15
-46 4 -18 3 -20 -6 -8 -11 15 -12 13 -15 -22 -1 -7 -5 -16 -11 -20 -6 -5 -6
-11 1 -18 9 -9 19 8 42 62 16 40 35 91 42 113 7 22 16 45 21 50 7 10 7 27 -1
85 -1 8 -6 2 -11 -15 -5 -19 -5 -31 2 -36 8 -5 8 -12 0 -25 -6 -12 -11 -14
-11 -6 0 8 -8 26 -18 40 -39 57 -66 162 -41 162 5 0 9 -8 8 -17 -4 -27 11 -93
20 -93 5 0 11 -10 14 -22 4 -12 9 -19 12 -16 4 3 -3 27 -15 52 -11 25 -21 67
-22 92 -2 36 -8 50 -26 62 -20 13 -25 13 -33 1 -13 -21 -12 7 2 32 8 16 7 26
-6 45 -19 30 -39 31 -59 2z m34 -4 c0 -9 -9 -27 -20 -41 -23 -29 -28 -11 -8
32 13 28 28 33 28 9z m16 -55 c-2 -33 -7 -63 -10 -66 -3 -4 3 -16 14 -28 17
-18 19 -26 9 -53 -9 -25 -8 -36 5 -54 23 -32 22 -98 -1 -98 -23 1 -53 23 -54
41 -4 38 -41 -210 -40 -263 0 -24 -4 -38 -12 -38 -9 0 -12 23 -10 93 2 50 3
101 3 112 -2 73 3 131 12 143 17 19 20 73 6 89 -10 13 -14 13 -24 -2 -7 -9
-10 -23 -7 -31 3 -8 1 -14 -4 -14 -5 0 -9 -10 -10 -22 -1 -12 -11 -31 -23 -42
l-21 -21 11 30 c13 37 28 71 45 107 8 15 10 30 5 33 -4 3 -11 -1 -14 -7 -3 -7
-3 -2 1 12 3 14 6 31 6 38 0 7 6 11 14 8 7 -3 12 -2 12 2 -4 25 4 22 16 -7 14
-31 14 -35 -2 -47 -10 -7 -13 -14 -7 -14 22 0 36 27 25 49 -14 25 -14 34 0 26
6 -4 13 2 16 14 3 12 12 21 19 21 8 0 14 10 14 25 0 14 2 25 5 25 2 0 3 -27 1
-61z m45 -72 c-11 -12 -26 -17 -36 -13 -15 5 -15 8 1 36 17 28 19 29 36 13 18
-16 18 -17 -1 -36z m-214 -209 c-3 -8 -6 -5 -6 6 -1 11 2 17 5 13 3 -3 4 -12
1 -19z m272 -57 c-7 -23 -14 -39 -16 -37 -3 2 1 23 8 45 7 23 14 39 16 37 3
-2 -1 -23 -8 -45z m-69 16 c0 -6 -6 -33 -14 -61 -32 -110 -52 -261 -34 -250 4
3 8 -2 8 -10 0 -9 -8 -16 -19 -16 -17 0 -18 5 -10 48 5 26 7 66 3 89 -7 47 2
86 18 77 7 -5 8 -2 3 5 -10 16 -16 101 -10 122 6 18 55 15 55 -4z m-213 -9
c-3 -8 -6 -5 -6 6 -1 11 2 17 5 13 3 -3 4 -12 1 -19z m139 -123 c0 -74 -4
-135 -8 -135 -15 0 -20 77 -9 132 6 32 9 62 6 67 -4 8 4 71 10 71 1 0 2 -61 1
-135z"/>
<path d="M2347 1283 c-4 -3 -7 -24 -7 -45 0 -24 -5 -38 -12 -38 -10 0 -10 -2
-1 -8 6 -4 13 -21 16 -37 l4 -30 2 32 c0 21 7 33 19 36 15 4 15 5 -2 6 -16 1
-18 7 -13 46 7 45 6 50 -6 38z"/>
<path d="M2330 1104 c0 -14 3 -14 15 -4 8 7 15 14 15 16 0 2 -7 4 -15 4 -8 0
-15 -7 -15 -16z"/>
<path d="M2406 1265 c4 -8 10 -12 15 -9 11 6 2 24 -11 24 -5 0 -7 -7 -4 -15z"/>
<path d="M2034 1199 c-9 -15 31 -19 45 -4 14 14 13 15 -13 13 -15 -1 -29 -6
-32 -9z"/>
<path d="M1972 1178 c-18 -18 -14 -32 5 -17 15 12 16 12 10 -4 -4 -11 -3 -16
3 -12 12 8 13 32 2 39 -5 3 -14 0 -20 -6z"/>
<path d="M2511 1168 c0 -13 4 -32 9 -43 7 -15 9 -10 9 23 1 23 -3 42 -9 42 -5
0 -10 -10 -9 -22z"/>
<path d="M1893 1114 c0 -7 4 -11 8 -8 4 2 9 -2 11 -8 3 -8 9 -5 16 8 10 19 9
22 -12 22 -12 0 -23 -6 -23 -14z"/>
<path d="M1820 1045 c-7 -9 -10 -18 -7 -21 3 -3 10 4 17 15 13 25 8 27 -10 6z"/>
<path d="M1951 1041 c-8 -5 -9 -11 -3 -15 5 -3 12 1 16 9 6 17 6 18 -13 6z"/>
<path d="M1840 1015 c-14 -16 -10 -18 14 -9 9 3 16 10 16 15 0 14 -16 11 -30
-6z"/>
<path d="M1450 970 c-8 -5 -11 -12 -7 -16 4 -4 15 0 24 9 18 18 8 23 -17 7z"/>
<path d="M2226 955 c-3 -9 -6 -22 -5 -28 0 -7 5 -1 10 12 5 13 8 26 5 28 -2 2
-6 -3 -10 -12z"/>
<path d="M1515 941 c-3 -6 -11 -9 -16 -6 -5 3 -6 -1 -3 -9 8 -21 20 -20 28 0
8 20 1 30 -9 15z"/>
<path d="M1867 936 c-10 -25 -9 -38 3 -31 6 4 8 12 4 18 -3 7 2 3 10 -7 19
-24 21 -7 3 18 -13 18 -14 18 -20 2z"/>
<path d="M2903 898 c-15 -20 -25 -38 -20 -38 3 0 12 11 21 25 17 26 16 35 -1
13z"/>
<path d="M1460 882 c0 -12 3 -12 15 -2 8 7 15 13 15 15 0 1 -7 2 -15 2 -8 0
-15 -7 -15 -15z"/>
<path d="M1410 859 c0 -5 5 -7 10 -4 6 3 10 8 10 11 0 2 -4 4 -10 4 -5 0 -10
-5 -10 -11z"/>
<path d="M1490 844 c0 -8 5 -12 10 -9 6 3 10 10 10 16 0 5 -4 9 -10 9 -5 0
-10 -7 -10 -16z"/>
<path d="M2844 835 c-10 -8 -14 -15 -8 -15 6 0 17 7 24 15 16 19 9 19 -16 0z"/>
<path d="M1350 829 c0 -5 5 -7 10 -4 6 3 10 8 10 11 0 2 -4 4 -10 4 -5 0 -10
-5 -10 -11z"/>
<path d="M1380 820 c0 -5 5 -10 10 -10 6 0 10 5 10 10 0 6 -4 10 -10 10 -5 0
-10 -4 -10 -10z"/>
<path d="M59 793 c-13 -16 -12 -17 4 -4 9 7 17 15 17 17 0 8 -8 3 -21 -13z"/>
<path d="M1210 755 c0 -8 2 -15 4 -15 2 0 6 7 10 15 3 8 1 15 -4 15 -6 0 -10
-7 -10 -15z"/>
<path d="M1473 763 c-15 -5 -17 -23 -4 -23 5 0 11 7 15 15 3 8 4 15 3 14 -1 0
-8 -3 -14 -6z"/>
<path d="M1260 745 c-17 -21 -9 -27 13 -10 10 7 14 16 9 19 -5 3 -15 -1 -22
-9z"/>
<path d="M1370 740 c0 -5 5 -10 10 -10 6 0 10 5 10 10 0 6 -4 10 -10 10 -5 0
-10 -4 -10 -10z"/>
<path d="M2241 714 c0 -11 3 -14 6 -6 3 7 2 16 -1 19 -3 4 -6 -2 -5 -13z"/>
<path d="M1416 704 c-9 -22 -8 -24 9 -18 8 4 15 12 15 20 0 19 -16 18 -24 -2z"/>
<path d="M1317 687 c-3 -8 1 -14 9 -14 16 0 19 13 5 21 -5 3 -11 0 -14 -7z"/>
<path d="M1170 674 c0 -14 3 -14 15 -4 8 7 15 14 15 16 0 2 -7 4 -15 4 -8 0
-15 -7 -15 -16z"/>
<path d="M1120 640 c0 -5 5 -10 10 -10 6 0 10 5 10 10 0 6 -4 10 -10 10 -5 0
-10 -4 -10 -10z"/>
<path d="M1931 614 c-24 -13 -59 -24 -78 -24 -19 0 -46 -6 -61 -14 -15 -8 -53
-19 -85 -25 -32 -6 -72 -17 -90 -25 -18 -8 -43 -18 -57 -22 -14 -4 -38 -17
-55 -29 -30 -22 -208 -61 -226 -49 -5 3 -17 0 -28 -5 -14 -8 -29 -7 -55 4 -35
15 -39 14 -106 -15 -38 -17 -109 -37 -157 -46 -48 -8 -104 -19 -123 -24 -19
-5 -39 -9 -44 -9 -5 1 -13 -6 -18 -15 -5 -9 -13 -14 -19 -11 -5 3 -6 0 -4 -7
4 -9 -7 -18 -28 -26 -40 -14 -50 -15 -42 -3 3 5 1 12 -4 15 -5 3 -11 -1 -15
-9 -3 -8 0 -15 7 -16 7 -1 -8 -5 -33 -10 -25 -5 -50 -16 -57 -25 -17 -24 -231
-114 -270 -114 -13 0 -40 -10 -61 -23 -40 -25 -96 -42 -177 -53 -27 -4 -44 -9
-38 -11 7 -3 43 0 80 7 86 14 81 12 128 37 22 11 67 28 100 38 81 23 230 90
255 115 11 11 30 20 43 20 40 0 121 33 140 56 10 13 35 27 55 31 20 4 39 8 42
8 3 1 32 5 65 10 62 8 150 35 197 61 32 17 59 18 93 2 21 -9 31 -9 46 0 11 7
23 10 28 8 4 -3 53 2 107 10 74 12 110 23 141 44 23 15 75 37 115 49 40 12
100 30 133 41 33 11 72 20 88 20 28 0 113 35 123 51 8 14 -8 9 -55 -17z"/>
<path d="M1200 620 c0 -5 5 -10 11 -10 5 0 7 5 4 10 -3 6 -8 10 -11 10 -2 0
-4 -4 -4 -10z"/>
<path d="M1172 596 c4 -20 2 -26 -8 -22 -8 3 -14 1 -14 -4 0 -12 20 -24 27
-16 11 10 11 56 1 62 -7 5 -9 -3 -6 -20z"/>
<path d="M1120 600 c0 -5 5 -10 10 -10 6 0 10 5 10 10 0 6 -4 10 -10 10 -5 0
-10 -4 -10 -10z"/>
<path d="M1217 593 c-4 -3 -7 -11 -7 -17 0 -6 5 -5 12 2 6 6 9 14 7 17 -3 3
-9 2 -12 -2z"/>
<path d="M1110 563 c8 -3 19 -11 23 -17 6 -7 7 -6 4 4 -2 8 -12 16 -23 17 -13
2 -15 1 -4 -4z"/>
<path d="M1090 529 c0 -11 4 -18 10 -14 5 3 7 12 3 20 -7 21 -13 19 -13 -6z"/>
<path d="M1255 540 c-3 -5 -2 -10 4 -10 5 0 13 5 16 10 3 6 2 10 -4 10 -5 0
-13 -4 -16 -10z"/>
<path d="M1144 504 c7 -38 14 -40 12 -5 0 17 -4 31 -9 31 -4 0 -5 -12 -3 -26z"/>
<path d="M1220 520 c0 -5 5 -10 11 -10 5 0 7 5 4 10 -3 6 -8 10 -11 10 -2 0
-4 -4 -4 -10z"/>
<path d="M1195 510 c-3 -5 -1 -10 4 -10 6 0 11 5 11 10 0 6 -2 10 -4 10 -3 0
-8 -4 -11 -10z"/>
<path d="M1110 490 c0 -5 5 -10 11 -10 5 0 7 5 4 10 -3 6 -8 10 -11 10 -2 0
-4 -4 -4 -10z"/>
<path d="M1070 474 c0 -8 5 -12 10 -9 6 4 8 11 5 16 -9 14 -15 11 -15 -7z"/>
<path d="M1237 483 c-4 -3 -7 -11 -7 -17 0 -6 5 -5 12 2 6 6 9 14 7 17 -3 3
-9 2 -12 -2z"/>
<path d="M1107 463 c-12 -12 -7 -19 15 -20 13 -1 18 1 13 5 -6 4 -13 11 -16
15 -3 4 -9 4 -12 0z"/>
<path d="M1186 461 c-3 -5 1 -11 9 -14 9 -4 12 -1 8 9 -6 16 -10 17 -17 5z"/>
<path d="M1081 434 c0 -11 3 -14 6 -6 3 7 2 16 -1 19 -3 4 -6 -2 -5 -13z"/>
<path d="M1030 422 c0 -12 3 -12 15 -2 8 7 15 13 15 15 0 1 -7 2 -15 2 -8 0
-15 -7 -15 -15z"/>
<path d="M747 416 c-3 -8 0 -17 7 -19 10 -4 12 1 9 14 -6 23 -9 24 -16 5z"/>
<path d="M720 393 c0 -15 18 -35 23 -27 3 5 -1 15 -9 22 -8 7 -14 9 -14 5z"/>
<path d="M751 356 c-10 -12 -8 -13 8 -9 12 3 21 9 21 14 0 14 -16 11 -29 -5z"/>
<path d="M675 350 c-3 -5 -1 -10 4 -10 6 0 11 5 11 10 0 6 -2 10 -4 10 -3 0
-8 -4 -11 -10z"/>
<path d="M686 305 c-3 -8 -1 -15 4 -15 6 0 10 7 10 15 0 8 -2 15 -4 15 -2 0
-6 -7 -10 -15z"/>
<path d="M525 250 c-3 -5 -1 -10 4 -10 6 0 11 5 11 10 0 6 -2 10 -4 10 -3 0
-8 -4 -11 -10z"/>
<path d="M1511 94 c0 -11 3 -14 6 -6 3 7 2 16 -1 19 -3 4 -6 -2 -5 -13z"/>
</g>
</svg>
