<svg version="1.0" xmlns="http://www.w3.org/2000/svg"
 width="300.000000pt" height="415.000000pt" viewBox="0 0 300.000000 415.000000"
 preserveAspectRatio="xMidYMid meet">
<g transform="translate(0.000000,415.000000) scale(0.100000,-0.100000)"
fill="#000000" stroke="none">
<path d="M2615 3221 c-3 -5 -2 -12 3 -15 5 -3 9 1 9 9 0 17 -3 19 -12 6z"/>
<path d="M2465 2739 c-27 -16 -65 -29 -83 -29 -47 0 -97 -24 -122 -58 -12 -17
-21 -33 -19 -36 2 -3 -6 -13 -19 -21 -27 -20 -62 -85 -62 -118 0 -14 7 -30 15
-37 20 -16 19 -59 -1 -81 -9 -10 -17 -29 -18 -43 -1 -30 0 -30 -26 -14 -15 10
-22 9 -37 -4 -15 -14 -20 -14 -31 -2 -27 29 -42 15 -81 -73 -39 -89 -40 -128
-5 -164 25 -26 26 -31 14 -58 -16 -40 -4 -131 21 -149 10 -7 18 -20 18 -30 -1
-9 2 -27 6 -39 5 -16 3 -25 -9 -29 -15 -6 -34 -40 -50 -87 -3 -10 -2 -26 3
-35 5 -10 5 -40 -1 -73 -9 -48 -8 -61 11 -103 26 -60 27 -111 1 -153 -26 -43
-65 -61 -168 -79 -216 -37 -325 -80 -363 -141 -20 -33 -39 -36 -39 -7 0 8 -11
25 -25 38 -22 21 -23 25 -10 36 20 17 19 43 -5 90 -13 26 -27 40 -40 40 -11 0
-20 5 -20 10 0 13 -37 13 -45 -1 -5 -6 -13 -3 -22 10 -14 21 -43 29 -43 12 0
-5 -17 -18 -37 -28 -34 -16 -38 -23 -41 -60 -3 -43 -15 -56 -26 -28 -7 19 -50
19 -66 0 -18 -22 -26 -19 -96 30 -34 25 -68 45 -74 45 -25 0 -109 51 -115 71
-4 11 -4 36 -1 54 6 32 4 35 -33 55 -22 11 -45 29 -51 39 -14 28 -12 93 4 133
21 50 14 104 -26 183 -40 81 -74 106 -111 82 -31 -20 -97 -29 -97 -13 0 6 -17
22 -37 34 -36 20 -37 22 -16 28 13 4 23 10 23 15 0 15 -15 10 -38 -11 -22 -21
-31 -47 -12 -35 12 7 71 -25 65 -36 -3 -4 2 -12 10 -19 12 -10 18 -10 30 0 8
7 24 10 35 7 10 -3 24 1 31 9 12 15 47 18 65 6 6 -4 25 -36 42 -71 37 -74 41
-131 15 -204 -15 -43 -16 -52 -3 -90 12 -32 24 -46 52 -60 35 -16 38 -20 38
-61 0 -25 3 -52 6 -61 7 -16 93 -65 116 -65 7 0 42 -20 77 -45 69 -48 91 -54
111 -30 16 19 39 19 46 0 4 -8 14 -15 24 -15 15 0 20 9 22 42 3 36 8 45 33 58
17 8 33 20 38 27 11 17 34 6 41 -20 5 -20 7 -21 22 -5 13 13 21 14 38 6 11 -6
27 -14 35 -17 7 -4 20 -23 28 -44 14 -35 14 -39 -3 -58 -17 -19 -17 -20 4 -47
12 -15 27 -37 32 -49 14 -33 35 -28 58 12 13 21 40 44 72 60 50 25 208 67 305
80 150 20 212 119 154 249 -18 42 -19 52 -8 101 10 44 10 57 -1 70 -9 11 -10
19 -2 27 6 6 8 17 5 24 -3 8 0 14 6 14 6 0 11 7 11 15 0 9 7 18 15 21 24 9 39
44 26 57 -6 6 -11 21 -11 33 0 12 -9 28 -21 35 -16 11 -21 25 -21 69 -1 30 2
67 6 81 6 21 2 32 -19 55 -33 36 -31 70 14 168 l31 68 26 -16 c18 -13 29 -14
38 -7 7 6 27 8 45 5 29 -6 31 -5 31 24 0 16 6 35 14 41 23 20 25 70 3 98 -17
22 -18 29 -8 64 7 22 24 48 41 60 24 18 37 40 44 71 4 19 60 49 103 55 26 3
73 18 103 33 l55 28 57 -40 c31 -22 74 -46 95 -53 37 -13 38 -14 38 -63 0 -27
6 -56 13 -65 12 -14 11 -21 -9 -48 -14 -21 -17 -30 -8 -27 8 2 20 16 27 31 11
22 10 30 -3 50 -12 19 -14 34 -7 64 10 43 2 56 -39 66 -14 4 -56 27 -93 52
-37 25 -71 45 -74 44 -4 -1 -29 -14 -57 -30z"/>
<path d="M192 2444 c-79 -41 -112 -74 -112 -114 0 -24 -7 -33 -40 -50 -22 -11
-40 -25 -40 -30 0 -10 39 11 73 38 9 8 17 27 17 41 0 34 6 42 60 77 70 47 100
56 170 55 73 -1 103 -17 128 -64 10 -17 29 -44 45 -60 37 -39 45 -73 18 -82
-13 -4 -21 -15 -21 -29 0 -13 -15 -34 -40 -55 -43 -36 -51 -60 -21 -68 23 -6
19 -57 -6 -85 -20 -22 -26 -48 -11 -48 6 0 8 6 5 13 -3 8 5 21 18 31 28 21 29
78 1 99 -17 13 -16 15 23 49 22 19 41 44 41 54 0 11 9 25 20 32 34 21 23 70
-23 99 -7 5 -21 25 -31 46 -30 57 -65 78 -142 82 -59 3 -72 0 -132 -31z"/>
<path d="M2690 2438 c0 -32 13 -56 26 -51 15 6 30 -39 19 -57 -4 -6 1 -17 11
-25 15 -11 16 -17 7 -38 -10 -22 -8 -28 13 -48 13 -12 24 -18 24 -13 0 5 5 1
11 -8 16 -29 90 -24 119 7 13 14 32 25 42 25 10 0 18 5 18 11 0 15 -41 1 -68
-24 -26 -25 -87 -30 -103 -10 -6 7 -17 13 -24 13 -18 0 -23 18 -17 58 3 19 0
32 -6 32 -6 0 -10 14 -10 32 1 23 -6 38 -28 56 -19 15 -25 26 -16 29 6 2 10 9
6 14 -8 13 -24 11 -24 -3z"/>
</g>
</svg>
